<svg xmlns="http://www.w3.org/2000/svg" width="50" height="50"><defs><clipPath id="a"><path fill="#fff" d="M50 25c0 13.807-11.193 25-25 25S0 38.807 0 25 11.193 0 25 0s25 11.193 25 25z"/></clipPath></defs><path fill="#3b8cec" d="M50 25c0 13.807-11.193 25-25 25S0 38.807 0 25 11.193 0 25 0s25 11.193 25 25z"/><path fill="none" stroke="#fff" stroke-miterlimit="20" stroke-width="3" d="M50 25c0 13.807-11.193 25-25 25S0 38.807 0 25 11.193 0 25 0s25 11.193 25 25z" clip-path="url(&quot;#a&quot;)"/><path fill="#fbfbfb" d="M33.13 17.095c.96-.384 1.92.448 1.727 1.536L31.401 33.48a.673.673 0 01-1.024.384l-4.992-3.648-2.624 2.432c-.32.32-.896.192-1.024-.256l-1.792-5.632-4.48-1.408c-.576-.192-.64-1.024-.064-1.216zm.255 1.28l-12.48 8.192 1.28 4.608.576-3.328z"/></svg>